<svg xmlns="http://www.w3.org/2000/svg" viewBox="0 0 43.81 42.92"><defs><style>.cls-1{fill:#3d3d3d;}.cls-2{fill:#2563eb;}</style></defs><g id="Layer_2" data-name="Layer 2"><g id="Layer_2-2" data-name="Layer 2"><g id="ni"><path class="cls-1" d="M12.06,35a3.24,3.24,0,0,1,3.38-3.24A3.25,3.25,0,0,1,18.71,35a3.33,3.33,0,1,1-6.65,0Z"/><path class="cls-2" d="M43.42,13.52a2.9,2.9,0,0,0-3.14-3.11,3,3,0,0,0-2.76,3.19V34.1a3.28,3.28,0,0,1-3.27,3.28,3.49,3.49,0,0,1-3.49-3.49V32.45h0V31.8h0V27.56c0-.57,0-1.16,0-1.73a15.64,15.64,0,0,0-.9-5.46A15.3,15.3,0,0,0,.13,24.56c-.24,5-.09,9.92-.06,14.88A2.94,2.94,0,0,0,2.86,42.2,2.84,2.84,0,0,0,6,39.15c0-4.32,0-8.65,0-13a13.45,13.45,0,0,1,.26-2.76,9.29,9.29,0,0,1,7.51-7.29,9.56,9.56,0,0,1,9.68,4.44,10.92,10.92,0,0,1,1.51,5.76v9.05a9,9,0,0,0,.39,1.72,8.15,8.15,0,0,0,3.91,4.68.52.52,0,0,0,.13.06,11.29,11.29,0,0,0,9.19.21l.27-.12a7.66,7.66,0,0,0,3.41-3,10.27,10.27,0,0,0,1.19-5c0-.2,0-.41,0-.61a.06.06,0,0,0,0-.06v-7h0c0-.83,0-1.65,0-2.49v-5.3h0C43.44,16.84,43.45,15.17,43.42,13.52Zm-5.9,20.84h0v.33h0Z"/><path class="cls-2" d="M37.16,3.24a3.33,3.33,0,0,1,6.65,0,3.33,3.33,0,1,1-6.65,0Z"/></g></g></g></svg>